<svg id="svg" version="1.1" xmlns="http://www.w3.org/2000/svg" xmlns:xlink="http://www.w3.org/1999/xlink" width="400" height="400" viewBox="0, -100, 400,550"><g id="svgg"><path id="path0" d="M112.667 200.003 L 112.667 321.007 175.542 320.954 C 242.618 320.897,238.536 320.943,244.917 320.174 C 286.900 315.119,312.535 292.133,315.179 257.170 C 317.666 224.300,302.382 199.588,273.925 190.466 C 272.411 189.981,271.170 189.534,271.169 189.474 C 271.168 189.414,271.935 188.971,272.875 188.491 C 294.243 177.575,303.774 162.190,303.742 138.667 C 303.691 101.878,283.513 82.928,240.750 79.510 C 234.854 79.038,229.707 79.000,172.133 79.000 L 112.667 79.000 112.667 200.003 M222.283 120.510 C 242.825 122.206,252.333 130.983,252.333 148.250 C 252.333 162.815,245.938 171.527,232.413 175.388 C 226.877 176.969,226.119 177.000,193.570 177.000 L 165.833 177.000 165.833 148.667 L 165.833 120.333 192.991 120.333 C 210.625 120.333,220.897 120.395,222.283 120.510 M231.167 213.538 C 248.577 215.954,258.245 223.521,261.140 237.000 C 262.522 243.434,262.491 252.483,261.068 257.959 C 258.166 269.131,248.914 276.506,235.000 278.741 C 229.679 279.596,231.382 279.556,197.458 279.618 L 165.833 279.677 165.833 246.416 L 165.833 213.155 197.542 213.213 C 225.439 213.265,229.480 213.304,231.167 213.538 " stroke="none" fill="#fff" fill-rule="evenodd"></path><path id="path1" d="M46.583 0.109 C 44.800 0.216,40.267 1.087,37.619 1.831 C 17.393 7.512,2.627 24.870,0.257 45.751 C -0.162 49.436,-0.041 353.288,0.380 355.667 C 2.559 367.984,7.041 376.906,15.075 384.919 C 23.151 392.975,32.052 397.447,44.333 399.620 C 46.294 399.967,349.949 400.178,353.417 399.835 C 377.316 397.471,395.813 379.721,399.616 355.500 C 400.085 352.508,400.085 47.492,399.616 44.500 C 396.090 22.045,379.749 4.841,358.151 0.845 C 357.105 0.651,355.912 0.404,355.500 0.295 C 354.828 0.118,49.493 -0.066,46.583 0.109 M233.583 79.006 C 279.982 81.005,301.909 98.353,303.845 134.595 C 305.179 159.565,295.537 176.693,273.701 188.137 C 272.391 188.824,271.379 189.439,271.451 189.505 C 271.524 189.570,272.483 189.903,273.583 190.244 C 296.946 197.487,311.663 215.304,314.822 240.167 C 320.333 283.539,293.928 314.154,245.833 320.153 C 237.831 321.151,243.010 321.083,174.833 321.083 L 112.583 321.083 112.541 200.167 C 112.517 133.662,112.534 79.156,112.577 79.042 C 112.680 78.770,227.317 78.736,233.583 79.006 M166.000 148.581 L 166.000 176.843 195.625 176.789 C 222.169 176.740,225.423 176.706,226.917 176.460 C 243.246 173.774,251.114 165.815,252.199 150.883 C 253.404 134.298,245.090 124.030,228.277 121.338 C 222.458 120.407,223.642 120.440,193.708 120.377 L 166.000 120.319 166.000 148.581 M166.000 246.506 L 166.000 279.679 196.875 279.620 C 229.110 279.558,228.482 279.572,233.750 278.817 C 253.783 275.944,263.410 264.199,262.014 244.333 C 260.848 227.740,253.381 218.650,237.790 214.847 C 231.463 213.304,232.444 213.340,196.958 213.337 L 166.000 213.333 166.000 246.506 " stroke="none" fill="#556b2f" fill-rule="evenodd"></path><path id="path2" d="M233.208 79.115 C 233.369 79.157,233.631 79.157,233.792 79.115 C 233.952 79.073,233.821 79.039,233.500 79.039 C 233.179 79.039,233.048 79.073,233.208 79.115 M287.833 96.213 C 287.833 96.238,288.415 96.819,289.125 97.504 L 290.417 98.750 289.171 97.458 C 288.014 96.259,287.833 96.091,287.833 96.213 M297.000 203.583 C 297.311 203.904,297.603 204.167,297.649 204.167 C 297.695 204.167,297.478 203.904,297.167 203.583 C 296.856 203.262,296.564 203.000,296.518 203.000 C 296.472 203.000,296.689 203.262,297.000 203.583 M299.333 205.917 C 299.644 206.237,299.936 206.500,299.982 206.500 C 300.028 206.500,299.811 206.237,299.500 205.917 C 299.189 205.596,298.897 205.333,298.851 205.333 C 298.805 205.333,299.022 205.596,299.333 205.917 M226.208 213.282 C 226.369 213.323,226.631 213.323,226.792 213.282 C 226.952 213.240,226.821 213.205,226.500 213.205 C 226.179 213.205,226.048 213.240,226.208 213.282 M315.398 251.250 C 315.398 252.442,315.425 252.907,315.457 252.285 C 315.489 251.662,315.489 250.687,315.457 250.118 C 315.424 249.549,315.398 250.058,315.398 251.250 M236.208 320.948 C 236.369 320.990,236.631 320.990,236.792 320.948 C 236.952 320.906,236.821 320.872,236.500 320.872 C 236.179 320.872,236.048 320.906,236.208 320.948 " stroke="none" fill="#aca4c2" fill-rule="evenodd"></path><path id="path3" d="M228.625 78.956 C 229.106 78.990,229.894 78.990,230.375 78.956 C 230.856 78.923,230.463 78.895,229.500 78.895 C 228.537 78.895,228.144 78.923,228.625 78.956 M112.583 200.000 C 112.583 266.596,112.602 293.840,112.625 260.542 C 112.648 227.244,112.648 172.756,112.625 139.458 C 112.602 106.160,112.583 133.404,112.583 200.000 M234.542 79.115 C 234.702 79.157,234.965 79.157,235.125 79.115 C 235.285 79.073,235.154 79.039,234.833 79.039 C 234.512 79.039,234.381 79.073,234.542 79.115 M165.915 148.583 C 165.915 164.167,165.934 170.566,165.958 162.805 C 165.982 155.043,165.982 142.293,165.958 134.472 C 165.934 126.650,165.915 133.000,165.915 148.583 M245.160 128.875 C 245.850 129.611,246.000 129.743,246.000 129.618 C 246.000 129.591,245.644 129.235,245.208 128.826 L 244.417 128.083 245.160 128.875 M303.885 137.083 C 303.886 137.633,303.917 137.838,303.954 137.539 C 303.991 137.239,303.990 136.789,303.952 136.539 C 303.914 136.288,303.884 136.533,303.885 137.083 M303.881 141.083 C 303.882 141.542,303.915 141.709,303.953 141.456 C 303.991 141.203,303.990 140.828,303.951 140.623 C 303.911 140.418,303.880 140.625,303.881 141.083 M289.577 176.708 L 288.750 177.583 289.625 176.756 C 290.106 176.301,290.500 175.908,290.500 175.881 C 290.500 175.757,290.346 175.895,289.577 176.708 M165.875 246.458 L 165.916 279.750 165.958 246.542 L 166.001 213.334 195.709 213.292 L 225.417 213.249 195.625 213.208 L 165.833 213.167 165.875 246.458 M315.375 247.917 C 315.377 248.283,315.411 248.414,315.451 248.206 C 315.491 247.999,315.490 247.699,315.448 247.540 C 315.406 247.380,315.374 247.550,315.375 247.917 M315.372 254.333 C 315.372 254.654,315.406 254.785,315.448 254.625 C 315.490 254.465,315.490 254.202,315.448 254.042 C 315.406 253.881,315.372 254.012,315.372 254.333 M225.708 279.615 C 225.869 279.657,226.131 279.657,226.292 279.615 C 226.452 279.573,226.321 279.539,226.000 279.539 C 225.679 279.539,225.548 279.573,225.708 279.615 M231.964 321.123 C 232.448 321.157,233.198 321.156,233.631 321.122 C 234.063 321.088,233.667 321.060,232.750 321.061 C 231.833 321.061,231.480 321.089,231.964 321.123 " stroke="none" fill="#9383ab" fill-rule="evenodd"></path><path id="path4" d="M141.361 78.958 C 157.189 78.982,183.139 78.982,199.028 78.958 C 214.917 78.935,201.967 78.916,170.250 78.916 C 138.533 78.916,125.533 78.935,141.361 78.958 M303.872 139.833 C 303.872 140.154,303.906 140.285,303.948 140.125 C 303.990 139.965,303.990 139.702,303.948 139.542 C 303.906 139.381,303.872 139.512,303.872 139.833 M179.779 176.958 C 187.403 176.982,199.928 176.982,207.612 176.958 C 215.296 176.934,209.058 176.915,193.750 176.915 C 178.442 176.915,172.154 176.934,179.779 176.958 M142.195 321.125 C 158.481 321.148,185.181 321.148,201.528 321.125 C 217.875 321.102,204.550 321.082,171.917 321.082 C 139.283 321.082,125.908 321.102,142.195 321.125 " stroke="none" fill="#000" fill-rule="evenodd"></path></g></svg>