<svg id="svg" version="1.1" xmlns="http://www.w3.org/2000/svg" xmlns:xlink="http://www.w3.org/1999/xlink" width="400" height="400" viewBox="0, 0, 400, 570"><g id="svgg"><path id="path0" d="M63.164 191.083 C 64.216 204.859,66.570 225.911,67.876 233.224 C 68.136 234.681,64.410 234.580,132.500 234.983 C 165.317 235.177,192.842 235.448,193.667 235.586 L 195.167 235.836 193.167 236.716 C 192.067 237.201,185.992 239.878,179.667 242.666 C 169.469 247.161,130.347 264.114,124.667 266.500 C 115.346 270.415,77.429 286.941,75.868 287.769 L 73.902 288.812 74.119 294.079 C 74.377 300.332,74.937 306.928,76.492 322.000 C 77.125 328.142,77.761 334.592,77.905 336.333 L 78.167 339.500 82.833 339.465 C 85.400 339.445,127.225 339.310,175.777 339.165 L 264.055 338.900 263.852 341.533 C 263.740 342.982,263.423 347.842,263.146 352.333 C 262.870 356.825,262.208 366.950,261.675 374.833 C 261.141 382.717,260.520 392.497,260.295 396.566 L 259.884 403.966 255.692 405.295 C 250.938 406.801,245.423 408.442,224.333 414.628 C 208.891 419.157,205.243 420.315,201.744 421.796 L 199.654 422.680 195.577 421.994 C 191.548 421.315,164.903 416.289,162.000 415.660 C 161.175 415.481,156.750 414.652,152.167 413.818 C 147.583 412.984,142.183 411.915,140.167 411.441 C 138.150 410.967,136.167 410.507,135.760 410.419 C 134.577 410.164,134.455 409.761,134.020 404.667 C 133.793 402.008,133.041 393.117,132.350 384.908 C 131.659 376.699,131.018 369.907,130.926 369.815 C 130.165 369.054,101.337 368.662,87.176 369.221 L 81.579 369.442 81.804 373.804 C 82.918 395.388,85.885 425.128,88.754 443.471 L 89.167 446.108 98.667 448.557 C 103.892 449.904,116.394 453.189,126.450 455.857 C 136.506 458.525,152.856 462.722,162.783 465.185 C 172.711 467.647,184.358 470.573,188.667 471.686 C 198.114 474.126,198.797 474.160,205.333 472.507 C 216.245 469.746,236.059 464.548,262.500 457.508 C 277.900 453.408,294.885 448.894,300.244 447.477 L 309.988 444.902 310.158 443.867 C 310.510 441.720,317.916 358.311,319.484 338.833 C 320.809 322.382,322.996 292.245,322.999 290.417 C 323.000 290.085,312.316 289.995,270.750 289.977 C 242.012 289.964,218.227 289.845,217.892 289.714 C 216.844 289.301,228.336 283.863,249.333 274.837 C 255.842 272.039,265.292 267.914,270.333 265.669 C 275.375 263.424,285.350 259.044,292.500 255.934 C 316.024 245.705,323.724 242.245,325.289 241.199 C 327.142 239.961,327.367 239.140,327.973 231.429 C 328.185 228.718,328.955 219.900,329.682 211.833 C 330.409 203.767,331.116 195.278,331.253 192.969 L 331.501 188.771 320.334 188.553 C 314.192 188.433,253.769 188.334,186.060 188.334 L 62.954 188.333 63.164 191.083 " stroke="none" fill="#fff" fill-rule="evenodd"></path><path id="path1" d="M88.250 0.916 L 79.667 1.011 79.667 38.800 L 79.667 76.589 116.417 76.734 C 136.629 76.814,153.242 76.819,153.333 76.745 C 153.425 76.672,153.551 72.349,153.614 67.139 L 153.728 57.667 137.585 57.667 C 128.706 57.667,117.126 57.567,111.850 57.445 L 102.259 57.224 102.383 40.970 C 102.451 32.030,102.594 24.628,102.700 24.522 C 102.807 24.415,114.318 24.292,128.280 24.247 L 153.666 24.167 153.667 12.637 L 153.667 1.108 140.612 0.887 C 128.446 0.682,108.495 0.693,88.250 0.916 M173.583 0.917 L 162.000 1.009 162.000 24.171 L 162.000 47.333 188.000 47.333 L 214.000 47.333 213.998 49.250 C 213.998 50.304,213.900 52.854,213.781 54.917 L 213.565 58.667 187.782 58.667 L 162.000 58.667 162.000 67.855 L 162.000 77.042 199.417 76.810 C 219.996 76.682,236.888 76.531,236.954 76.473 C 237.021 76.416,236.964 66.410,236.828 54.238 L 236.580 32.107 223.069 31.887 C 215.638 31.766,203.507 31.667,196.112 31.667 L 182.667 31.667 182.667 27.553 L 182.667 23.440 191.417 23.221 C 196.229 23.100,208.454 23.001,218.583 23.001 L 237.000 23.000 237.000 12.054 L 237.000 1.108 223.750 0.888 C 211.364 0.682,202.441 0.687,173.583 0.917 M244.886 7.554 C 244.765 11.158,244.667 21.583,244.667 30.720 L 244.667 47.333 270.500 47.333 L 296.333 47.333 296.333 53.000 L 296.333 58.667 270.500 58.667 L 244.667 58.667 244.667 67.833 L 244.667 77.000 282.167 77.000 L 319.667 77.000 319.667 54.720 L 319.667 32.440 312.417 32.221 C 308.429 32.100,296.204 32.001,285.250 32.001 L 265.333 32.000 265.333 29.213 C 265.333 27.680,265.238 25.730,265.121 24.880 L 264.909 23.333 292.288 23.333 L 319.667 23.333 319.667 12.167 L 319.667 1.000 282.386 1.000 L 245.106 1.000 244.886 7.554 " stroke="none" fill="#013220" fill-rule="evenodd"></path><path id="path2" d="M-0.000 109.946 C -0.000 111.016,0.294 114.578,0.653 117.862 C 1.660 127.066,4.669 160.408,8.668 206.667 C 10.267 225.161,16.894 299.260,18.999 322.167 C 20.646 340.100,25.507 394.875,28.168 425.500 C 30.475 452.035,34.067 491.775,35.635 508.107 C 35.984 511.741,36.349 514.793,36.446 514.890 C 36.543 514.987,40.420 516.109,45.061 517.382 C 49.702 518.656,65.125 523.002,79.333 527.041 C 93.542 531.080,109.517 535.583,114.833 537.047 C 120.150 538.512,128.025 540.738,132.333 541.994 C 136.642 543.250,148.567 546.625,158.833 549.494 C 169.100 552.363,182.168 556.051,187.873 557.689 C 200.351 561.271,198.340 561.240,209.588 558.021 C 214.673 556.566,228.583 552.658,240.500 549.337 C 252.417 546.015,265.992 542.193,270.667 540.842 C 275.342 539.491,282.842 537.386,287.333 536.163 C 291.825 534.940,306.000 530.968,318.833 527.335 C 344.686 520.017,350.887 518.283,358.000 516.383 C 362.260 515.245,362.863 514.997,363.082 514.296 C 363.345 513.455,369.286 447.929,373.505 399.333 C 374.882 383.475,377.581 353.100,379.502 331.833 C 385.517 265.264,399.333 109.646,399.333 108.476 C 399.333 108.064,372.465 108.000,199.667 108.000 L 0.000 108.000 -0.000 109.946 M363.000 141.210 C 363.000 141.508,362.400 148.260,361.666 156.213 C 360.933 164.165,358.456 192.084,356.162 218.253 C 353.868 244.422,350.497 282.333,348.670 302.500 C 344.446 349.132,343.385 361.043,339.501 405.500 C 333.039 479.441,332.190 488.553,331.712 489.057 C 331.595 489.179,314.025 494.081,292.667 499.949 C 200.633 525.234,204.748 524.123,201.592 524.541 L 199.980 524.755 200.073 504.294 C 200.125 493.041,200.040 481.641,199.884 478.961 L 199.602 474.088 197.718 473.885 C 196.681 473.773,192.908 472.927,189.333 472.004 C 185.758 471.082,173.233 467.934,161.500 465.009 C 149.767 462.085,134.317 458.126,127.167 456.213 C 120.017 454.300,108.542 451.276,101.667 449.493 C 94.792 447.710,89.130 446.221,89.085 446.183 C 88.059 445.319,83.502 403.040,82.185 382.167 C 81.908 377.767,81.592 373.004,81.484 371.583 L 81.288 369.000 104.432 369.000 C 124.536 369.000,130.710 369.174,131.182 369.752 C 131.218 369.797,131.648 374.708,132.138 380.667 C 133.389 395.908,134.646 409.757,134.790 409.902 C 135.144 410.255,144.011 412.179,152.833 413.816 C 158.333 414.837,165.908 416.259,169.667 416.977 C 189.180 420.703,196.107 421.979,197.959 422.189 L 200.000 422.419 200.047 413.126 C 200.072 408.015,200.110 389.260,200.130 371.448 L 200.167 339.063 193.167 339.196 C 172.384 339.590,78.000 339.598,78.000 339.204 C 78.000 338.484,77.007 328.207,75.839 316.833 C 74.783 306.546,74.323 300.930,73.829 292.273 L 73.625 288.714 77.063 287.040 C 78.953 286.120,89.200 281.621,99.833 277.042 C 173.354 245.382,194.792 236.014,194.468 235.690 C 194.364 235.587,168.605 235.385,137.223 235.242 C 105.842 235.100,77.398 234.874,74.014 234.741 L 67.862 234.500 66.934 227.667 C 65.013 213.511,63.595 200.329,63.132 192.304 L 62.909 188.441 109.306 188.204 C 134.825 188.073,165.671 188.073,177.852 188.203 L 200.000 188.439 200.002 167.803 C 200.003 156.453,200.100 145.704,200.219 143.917 L 200.434 140.667 281.717 140.667 C 356.613 140.667,363.000 140.709,363.000 141.210 " stroke="none" fill="#013220" fill-rule="evenodd"></path><path id="path3" d="M200.219 143.917 C 200.100 145.704,200.003 156.429,200.002 167.750 L 200.000 188.333 265.647 188.333 C 305.676 188.333,331.369 188.454,331.485 188.643 C 331.725 189.030,331.264 195.407,329.990 209.333 C 329.445 215.292,328.699 223.842,328.333 228.333 C 327.966 232.825,327.497 237.364,327.289 238.419 C 326.730 241.264,328.414 240.405,294.500 255.162 C 286.800 258.513,276.375 263.090,271.333 265.333 C 266.292 267.577,256.831 271.706,250.310 274.510 C 236.712 280.356,228.493 284.046,221.833 287.293 L 217.167 289.569 220.500 289.832 C 222.333 289.977,246.146 290.018,273.417 289.923 L 323.000 289.751 322.999 291.125 C 322.998 292.963,321.884 309.157,320.656 325.167 C 318.909 347.957,317.807 360.694,312.112 423.890 L 310.214 444.946 306.191 446.006 C 303.977 446.588,293.467 449.376,282.833 452.201 C 237.739 464.179,220.233 468.795,210.378 471.304 C 204.628 472.768,199.857 474.032,199.776 474.113 C 199.694 474.195,199.793 478.140,199.994 482.881 C 200.227 488.364,200.275 497.552,200.127 508.133 L 199.894 524.767 201.550 524.547 C 204.754 524.122,200.508 525.268,292.667 499.949 C 314.025 494.081,331.595 489.179,331.712 489.057 C 332.190 488.553,333.039 479.441,339.501 405.500 C 343.385 361.043,344.446 349.132,348.670 302.500 C 350.497 282.333,353.868 244.422,356.162 218.253 C 358.456 192.084,360.933 164.165,361.666 156.213 C 362.400 148.260,363.000 141.508,363.000 141.210 C 363.000 140.709,356.613 140.667,281.717 140.667 L 200.434 140.667 200.219 143.917 M132.917 188.250 C 140.296 188.300,152.371 188.300,159.750 188.250 C 167.129 188.200,161.092 188.159,146.333 188.159 C 131.575 188.159,125.538 188.200,132.917 188.250 M78.750 234.896 C 79.071 234.980,79.596 234.980,79.917 234.896 C 80.237 234.813,79.975 234.744,79.333 234.744 C 78.692 234.744,78.429 234.813,78.750 234.896 M99.429 235.247 C 100.490 235.313,102.140 235.312,103.096 235.245 C 104.051 235.178,103.183 235.124,101.167 235.125 C 99.150 235.125,98.368 235.180,99.429 235.247 M145.733 235.248 C 147.328 235.309,150.028 235.309,151.733 235.249 C 153.438 235.188,152.133 235.138,148.833 235.138 C 145.533 235.137,144.138 235.187,145.733 235.248 M186.750 235.563 C 187.071 235.647,187.596 235.647,187.917 235.563 C 188.237 235.479,187.975 235.411,187.333 235.411 C 186.692 235.411,186.429 235.479,186.750 235.563 M194.583 339.235 C 194.996 339.315,195.671 339.315,196.083 339.235 C 196.496 339.156,196.158 339.091,195.333 339.091 C 194.508 339.091,194.171 339.156,194.583 339.235 M200.214 353.250 C 200.104 361.087,200.036 379.776,200.063 394.779 C 200.105 418.006,200.042 422.102,199.640 422.357 C 198.790 422.895,199.548 422.682,201.400 421.863 C 204.921 420.306,209.312 418.920,229.972 412.846 C 250.036 406.946,259.325 404.120,259.620 403.824 C 259.697 403.747,259.890 401.468,260.049 398.759 C 260.208 396.050,261.009 383.558,261.828 371.000 C 262.648 358.442,263.434 346.203,263.576 343.803 L 263.833 339.439 249.362 339.220 C 241.403 339.099,227.133 339.000,217.652 339.000 L 200.414 339.000 200.214 353.250 M103.083 339.576 C 103.771 339.648,104.896 339.648,105.583 339.576 C 106.271 339.504,105.708 339.445,104.333 339.445 C 102.958 339.445,102.396 339.504,103.083 339.576 " stroke="none" fill="#000" fill-rule="evenodd"></path><path id="path4" d="M320.250 188.582 C 322.313 188.641,325.688 188.641,327.750 188.582 C 329.813 188.524,328.125 188.476,324.000 188.476 C 319.875 188.476,318.188 188.524,320.250 188.582 M331.411 190.000 C 331.411 190.642,331.479 190.904,331.563 190.583 C 331.647 190.262,331.647 189.737,331.563 189.417 C 331.479 189.096,331.411 189.358,331.411 190.000 M69.589 234.575 C 70.188 234.649,71.088 234.648,71.589 234.572 C 72.090 234.495,71.600 234.435,70.500 234.437 C 69.400 234.438,68.990 234.501,69.589 234.575 M81.592 234.911 C 82.376 234.982,83.576 234.981,84.259 234.909 C 84.941 234.837,84.300 234.780,82.833 234.781 C 81.367 234.782,80.808 234.841,81.592 234.911 M114.274 235.250 C 119.649 235.301,128.349 235.301,133.607 235.250 C 138.865 235.198,134.467 235.156,123.833 235.156 C 113.200 235.156,108.898 235.198,114.274 235.250 M159.417 235.249 C 162.121 235.305,166.546 235.305,169.250 235.249 C 171.954 235.193,169.742 235.147,164.333 235.147 C 158.925 235.147,156.712 235.193,159.417 235.249 M189.243 235.574 C 189.834 235.648,190.884 235.649,191.576 235.577 C 192.267 235.504,191.783 235.444,190.500 235.443 C 189.217 235.441,188.651 235.500,189.243 235.574 M218.750 289.896 C 219.071 289.980,219.596 289.980,219.917 289.896 C 220.237 289.813,219.975 289.744,219.333 289.744 C 218.692 289.744,218.429 289.813,218.750 289.896 M306.062 289.916 C 309.121 289.971,314.221 289.971,317.395 289.916 C 320.570 289.861,318.067 289.816,311.833 289.816 C 305.600 289.816,303.003 289.861,306.062 289.916 M74.077 296.667 C 74.077 297.308,74.146 297.571,74.230 297.250 C 74.314 296.929,74.314 296.404,74.230 296.083 C 74.146 295.762,74.077 296.025,74.077 296.667 M144.275 339.250 C 153.502 339.299,168.502 339.299,177.609 339.250 C 186.716 339.201,179.167 339.160,160.833 339.160 C 142.500 339.160,135.049 339.201,144.275 339.250 M249.417 339.249 C 252.121 339.305,256.546 339.305,259.250 339.249 C 261.954 339.193,259.742 339.147,254.333 339.147 C 248.925 339.147,246.713 339.193,249.417 339.249 M90.769 339.582 C 92.933 339.641,96.383 339.640,98.435 339.582 C 100.488 339.524,98.717 339.476,94.500 339.476 C 90.283 339.476,88.604 339.524,90.769 339.582 M263.411 346.000 C 263.411 346.642,263.479 346.904,263.563 346.583 C 263.647 346.262,263.647 345.738,263.563 345.417 C 263.479 345.096,263.411 345.358,263.411 346.000 M81.458 369.489 C 81.355 369.758,81.348 370.170,81.442 370.406 C 81.537 370.641,81.626 370.501,81.640 370.094 C 81.666 369.383,81.808 369.351,85.417 369.249 L 89.167 369.143 85.406 369.071 C 82.362 369.014,81.610 369.093,81.458 369.489 M81.744 375.333 C 81.744 375.975,81.813 376.238,81.896 375.917 C 81.980 375.596,81.980 375.071,81.896 374.750 C 81.813 374.429,81.744 374.692,81.744 375.333 M260.077 397.667 C 260.077 398.308,260.146 398.571,260.230 398.250 C 260.314 397.929,260.314 397.404,260.230 397.083 C 260.146 396.762,260.077 397.025,260.077 397.667 " stroke="none" fill="#66c2e8" fill-rule="evenodd"></path></g></svg>