<svg id="svg" version="1.1" xmlns="http://www.w3.org/2000/svg" xmlns:xlink="http://www.w3.org/1999/xlink" width="400" height="400" viewBox="0, 0, 400, 400"><g id="svgg"><path id="path0" d="M84.570 26.953 L 84.570 53.906 93.750 53.906 L 102.930 53.906 102.930 44.922 L 102.930 35.938 111.035 35.938 L 119.141 35.938 119.141 44.922 L 119.141 53.906 128.223 53.906 L 137.305 53.906 137.305 26.953 L 137.305 0.000 128.223 0.000 L 119.141 0.000 119.141 8.887 L 119.141 17.773 110.938 17.773 L 102.734 17.773 102.734 8.887 L 102.734 0.000 93.652 0.000 L 84.570 0.000 84.570 26.953 M144.922 8.984 L 144.922 17.969 152.930 17.969 L 160.938 17.969 160.938 35.938 L 160.938 53.906 169.922 53.906 L 178.906 53.906 178.906 35.938 L 178.906 17.969 186.914 17.969 L 194.922 17.969 194.922 8.984 L 194.922 0.000 169.922 0.000 L 144.922 0.000 144.922 8.984 M202.734 26.951 L 202.734 53.906 211.620 53.906 L 220.505 53.906 220.555 40.825 L 220.605 27.744 226.751 37.212 C 230.131 42.419,232.943 46.675,233.001 46.669 C 233.058 46.662,235.896 42.344,239.307 37.072 L 245.508 27.487 245.508 40.696 L 245.508 53.906 254.590 53.906 L 263.672 53.906 263.672 26.951 L 263.672 -0.004 254.078 0.047 L 244.483 0.098 238.806 9.419 L 233.128 18.741 232.090 17.036 C 231.519 16.099,228.964 11.904,226.412 7.715 L 221.773 0.098 212.254 0.047 L 202.734 -0.004 202.734 26.951 M272.266 26.953 L 272.266 53.906 294.141 53.906 L 316.016 53.906 316.016 44.922 L 316.016 35.938 303.223 35.938 L 290.430 35.938 290.430 17.969 L 290.430 0.000 281.348 0.000 L 272.266 0.000 272.266 26.953 " stroke="none" fill="#556b2f" fill-rule="evenodd"></path><path id="path1" d="M58.203 78.705 C 58.203 78.864,60.953 109.784,64.552 150.098 C 65.031 155.469,65.820 164.324,66.305 169.775 C 66.790 175.227,67.580 184.104,68.061 189.502 C 68.542 194.900,69.729 208.237,70.701 219.141 C 71.672 230.044,73.038 245.381,73.738 253.223 C 74.437 261.064,75.401 271.875,75.881 277.246 C 76.360 282.617,77.146 291.450,77.628 296.875 C 78.823 310.317,82.474 351.312,83.297 360.521 C 83.665 364.643,83.992 368.035,84.024 368.058 C 84.219 368.201,199.448 400.000,199.771 400.000 C 200.139 400.000,204.229 398.904,212.891 396.485 C 214.771 395.960,219.978 394.515,224.463 393.273 C 228.948 392.032,236.287 390.000,240.772 388.757 C 245.256 387.515,252.573 385.487,257.031 384.253 C 261.489 383.018,267.949 381.227,271.387 380.274 C 283.024 377.047,312.992 368.748,314.877 368.230 L 315.985 367.926 316.099 367.020 C 316.161 366.521,316.477 363.081,316.801 359.375 C 317.124 355.669,317.782 348.242,318.262 342.871 C 318.742 337.500,319.752 326.162,320.508 317.676 C 321.264 309.189,322.275 297.830,322.757 292.432 C 323.238 287.034,324.028 278.179,324.511 272.754 C 324.995 267.329,325.786 258.452,326.270 253.027 C 326.754 247.603,327.543 238.748,328.025 233.350 C 328.506 227.952,329.123 221.030,329.396 217.969 C 329.669 214.907,330.507 205.503,331.258 197.070 C 332.732 180.521,333.870 167.762,335.250 152.295 C 335.731 146.897,336.348 139.976,336.621 136.914 C 337.679 125.015,340.478 93.644,341.216 85.407 C 341.535 81.839,341.797 78.828,341.797 78.717 C 341.797 78.579,297.400 78.516,200.000 78.516 C 108.610 78.516,58.203 78.583,58.203 78.705 M315.819 102.588 C 315.814 103.460,293.742 349.097,293.661 349.178 C 293.605 349.233,272.663 355.112,247.122 362.241 C 221.581 369.371,200.530 375.252,200.343 375.310 C 200.021 375.411,199.999 374.421,199.952 357.106 L 199.902 338.795 163.577 328.661 C 143.598 323.088,127.219 318.495,127.179 318.455 C 127.139 318.415,126.023 306.271,124.698 291.467 C 123.374 276.663,122.245 264.133,122.189 263.622 L 122.088 262.693 139.994 262.743 L 157.900 262.793 159.135 276.848 C 159.814 284.578,160.408 290.942,160.455 290.989 C 160.545 291.079,199.602 301.560,199.854 301.562 C 199.935 301.562,199.979 288.840,199.952 273.291 L 199.902 245.020 160.205 244.970 C 128.645 244.931,120.508 244.871,120.507 244.677 C 120.507 244.543,118.354 220.617,115.722 191.508 C 113.091 162.399,110.938 138.383,110.938 138.139 L 110.938 137.695 155.469 137.695 L 200.000 137.695 200.000 120.020 L 200.000 102.344 257.910 102.344 C 304.109 102.344,315.820 102.393,315.819 102.588 M150.001 173.682 C 150.001 173.923,150.704 181.899,151.563 191.406 C 152.422 200.913,153.125 208.845,153.125 209.033 C 153.125 209.357,154.371 209.375,176.563 209.375 L 200.000 209.375 200.000 191.309 L 200.000 173.242 175.000 173.242 L 150.000 173.242 150.001 173.682 " stroke="none" fill="#556b2f" fill-rule="evenodd"></path><path id="path2" d="M111.034 138.428 C 111.089 138.831,113.246 162.671,115.827 191.406 C 118.407 220.142,120.564 243.938,120.620 244.287 L 120.721 244.922 182.138 244.922 L 243.555 244.922 243.551 245.361 C 243.546 246.083,239.480 291.054,239.415 291.111 C 239.382 291.139,230.482 293.540,219.637 296.446 L 199.919 301.729 180.184 296.449 C 169.330 293.546,160.407 291.130,160.356 291.081 C 160.272 291.001,157.839 264.183,157.820 263.135 L 157.813 262.695 140.039 262.695 C 125.951 262.695,122.266 262.746,122.265 262.939 C 122.265 263.217,127.122 317.478,127.197 318.042 C 127.289 318.730,199.539 338.735,200.635 338.376 C 201.091 338.227,217.373 333.698,236.816 328.312 C 256.260 322.926,272.243 318.448,272.334 318.361 C 272.450 318.251,282.197 211.184,282.224 209.717 C 282.225 209.636,253.183 209.570,217.685 209.570 L 153.143 209.570 153.043 208.936 C 152.988 208.586,152.280 200.830,151.469 191.699 C 150.659 182.568,149.944 174.680,149.882 174.170 L 149.768 173.243 217.609 173.194 L 285.449 173.145 287.047 156.055 C 287.925 146.655,288.650 138.679,288.658 138.330 L 288.672 137.695 199.802 137.695 L 110.933 137.695 111.034 138.428 " stroke="none" fill="#fff" fill-rule="evenodd"></path><path id="path3" d="M200.000 120.020 L 200.000 137.695 244.436 137.695 L 288.872 137.695 288.768 138.428 C 288.686 139.005,285.547 172.860,285.547 173.164 C 285.547 173.207,266.299 173.242,242.773 173.242 L 200.000 173.242 200.000 191.309 L 200.000 209.375 241.113 209.375 L 282.227 209.375 282.233 209.912 C 282.256 211.774,272.576 318.285,272.370 318.436 C 272.240 318.532,255.925 323.108,236.115 328.604 L 200.098 338.598 200.048 357.008 C 200.001 374.485,200.015 375.412,200.341 375.311 C 200.529 375.252,221.581 369.371,247.122 362.241 C 272.663 355.112,293.605 349.233,293.661 349.178 C 293.742 349.097,315.814 103.460,315.819 102.588 C 315.820 102.393,304.109 102.344,257.910 102.344 L 200.000 102.344 200.000 120.020 M164.810 209.521 C 171.290 209.550,181.837 209.550,188.248 209.521 C 194.658 209.493,189.355 209.470,176.465 209.470 C 163.574 209.470,158.330 209.493,164.810 209.521 M200.000 273.340 C 200.000 288.862,200.066 301.560,200.146 301.557 C 200.418 301.547,239.253 291.085,239.330 291.001 C 239.372 290.955,240.297 280.898,241.386 268.652 C 242.475 256.406,243.413 246.101,243.469 245.752 L 243.572 245.117 221.786 245.117 L 200.000 245.117 200.000 273.340 " stroke="none" fill="#000" fill-rule="evenodd"></path><path id="path4" d="M110.983 138.867 C 110.983 139.243,111.023 139.397,111.072 139.209 C 111.121 139.021,111.121 138.713,111.072 138.525 C 111.023 138.337,110.983 138.491,110.983 138.867 M112.741 158.398 C 112.741 158.774,112.781 158.928,112.830 158.740 C 112.879 158.552,112.879 158.245,112.830 158.057 C 112.781 157.869,112.741 158.022,112.741 158.398 M112.936 160.547 C 112.936 160.923,112.976 161.077,113.025 160.889 C 113.074 160.701,113.074 160.393,113.025 160.205 C 112.976 160.017,112.936 160.171,112.936 160.547 M113.131 162.695 C 113.131 163.071,113.171 163.225,113.221 163.037 C 113.270 162.849,113.270 162.542,113.221 162.354 C 113.171 162.166,113.131 162.319,113.131 162.695 M113.327 164.844 C 113.327 165.220,113.367 165.374,113.416 165.186 C 113.465 164.998,113.465 164.690,113.416 164.502 C 113.367 164.314,113.327 164.468,113.327 164.844 M286.178 165.234 C 286.178 165.610,286.218 165.764,286.267 165.576 C 286.317 165.388,286.317 165.081,286.267 164.893 C 286.218 164.705,286.178 164.858,286.178 165.234 M113.522 166.992 C 113.522 167.368,113.562 167.522,113.611 167.334 C 113.660 167.146,113.660 166.838,113.611 166.650 C 113.562 166.462,113.522 166.616,113.522 166.992 M113.717 169.141 C 113.717 169.517,113.757 169.670,113.807 169.482 C 113.856 169.294,113.856 168.987,113.807 168.799 C 113.757 168.611,113.717 168.765,113.717 169.141 M113.913 171.289 C 113.913 171.665,113.953 171.819,114.002 171.631 C 114.051 171.443,114.051 171.135,114.002 170.947 C 113.953 170.759,113.913 170.913,113.913 171.289 M150.241 178.125 C 150.241 178.501,150.281 178.655,150.330 178.467 C 150.379 178.279,150.379 177.971,150.330 177.783 C 150.281 177.595,150.241 177.749,150.241 178.125 M150.436 180.273 C 150.436 180.649,150.476 180.803,150.525 180.615 C 150.574 180.427,150.574 180.120,150.525 179.932 C 150.476 179.744,150.436 179.897,150.436 180.273 M150.631 182.422 C 150.631 182.798,150.671 182.952,150.721 182.764 C 150.770 182.576,150.770 182.268,150.721 182.080 C 150.671 181.892,150.631 182.046,150.631 182.422 M150.827 184.570 C 150.827 184.946,150.867 185.100,150.916 184.912 C 150.965 184.724,150.965 184.417,150.916 184.229 C 150.867 184.041,150.827 184.194,150.827 184.570 M151.022 186.719 C 151.022 187.095,151.062 187.249,151.111 187.061 C 151.160 186.873,151.160 186.565,151.111 186.377 C 151.062 186.189,151.022 186.343,151.022 186.719 M151.217 188.867 C 151.217 189.243,151.257 189.397,151.307 189.209 C 151.356 189.021,151.356 188.713,151.307 188.525 C 151.257 188.337,151.217 188.491,151.217 188.867 M151.413 191.016 C 151.413 191.392,151.453 191.545,151.502 191.357 C 151.551 191.169,151.551 190.862,151.502 190.674 C 151.453 190.486,151.413 190.640,151.413 191.016 M115.866 192.969 C 115.866 193.345,115.906 193.499,115.955 193.311 C 116.004 193.123,116.004 192.815,115.955 192.627 C 115.906 192.439,115.866 192.593,115.866 192.969 M116.061 195.117 C 116.061 195.493,116.101 195.647,116.150 195.459 C 116.199 195.271,116.199 194.963,116.150 194.775 C 116.101 194.587,116.061 194.741,116.061 195.117 M116.256 197.266 C 116.256 197.642,116.296 197.795,116.346 197.607 C 116.395 197.419,116.395 197.112,116.346 196.924 C 116.296 196.736,116.256 196.890,116.256 197.266 M116.452 199.414 C 116.452 199.790,116.492 199.944,116.541 199.756 C 116.590 199.568,116.590 199.260,116.541 199.072 C 116.492 198.884,116.452 199.038,116.452 199.414 M116.647 201.563 C 116.647 201.938,116.687 202.092,116.736 201.904 C 116.785 201.716,116.785 201.409,116.736 201.221 C 116.687 201.033,116.647 201.187,116.647 201.563 M116.842 203.711 C 116.842 204.087,116.882 204.241,116.932 204.053 C 116.981 203.865,116.981 203.557,116.932 203.369 C 116.882 203.181,116.842 203.335,116.842 203.711 M117.038 205.859 C 117.038 206.235,117.078 206.389,117.127 206.201 C 117.176 206.013,117.176 205.706,117.127 205.518 C 117.078 205.330,117.038 205.483,117.038 205.859 M152.975 208.398 C 152.975 208.774,153.015 208.928,153.064 208.740 C 153.113 208.552,153.113 208.245,153.064 208.057 C 153.015 207.869,152.975 208.022,152.975 208.398 M220.361 209.521 C 231.721 209.549,250.310 209.549,261.670 209.521 C 273.030 209.494,263.735 209.471,241.016 209.471 C 218.296 209.471,209.001 209.494,220.361 209.521 M282.077 211.328 C 282.077 211.704,282.117 211.858,282.166 211.670 C 282.215 211.482,282.215 211.174,282.166 210.986 C 282.117 210.798,282.077 210.952,282.077 211.328 M280.709 226.563 C 280.709 226.938,280.750 227.092,280.799 226.904 C 280.848 226.716,280.848 226.409,280.799 226.221 C 280.750 226.033,280.709 226.187,280.709 226.563 M118.991 227.539 C 118.991 227.915,119.031 228.069,119.080 227.881 C 119.129 227.693,119.129 227.385,119.080 227.197 C 119.031 227.009,118.991 227.163,118.991 227.539 M119.186 229.688 C 119.186 230.063,119.226 230.217,119.275 230.029 C 119.324 229.841,119.324 229.534,119.275 229.346 C 119.226 229.158,119.186 229.312,119.186 229.688 M119.381 231.836 C 119.381 232.212,119.421 232.366,119.471 232.178 C 119.520 231.990,119.520 231.682,119.471 231.494 C 119.421 231.306,119.381 231.460,119.381 231.836 M119.577 233.984 C 119.577 234.360,119.617 234.514,119.666 234.326 C 119.715 234.138,119.715 233.831,119.666 233.643 C 119.617 233.455,119.577 233.608,119.577 233.984 M119.772 236.133 C 119.772 236.509,119.812 236.663,119.861 236.475 C 119.910 236.287,119.910 235.979,119.861 235.791 C 119.812 235.603,119.772 235.757,119.772 236.133 M119.967 238.281 C 119.967 238.657,120.007 238.811,120.057 238.623 C 120.106 238.435,120.106 238.127,120.057 237.939 C 120.007 237.751,119.967 237.905,119.967 238.281 M279.538 239.648 C 279.538 240.024,279.578 240.178,279.627 239.990 C 279.676 239.802,279.676 239.495,279.627 239.307 C 279.578 239.119,279.538 239.272,279.538 239.648 M120.163 240.430 C 120.163 240.806,120.203 240.959,120.252 240.771 C 120.301 240.583,120.301 240.276,120.252 240.088 C 120.203 239.900,120.163 240.054,120.163 240.430 M210.693 245.068 C 216.736 245.097,226.624 245.097,232.666 245.068 C 238.708 245.040,233.765 245.016,221.680 245.016 C 209.595 245.016,204.651 245.040,210.693 245.068 M243.014 250.586 C 243.014 250.962,243.054 251.116,243.103 250.928 C 243.153 250.740,243.153 250.432,243.103 250.244 C 243.054 250.056,243.014 250.210,243.014 250.586 M278.170 254.883 C 278.170 255.259,278.211 255.413,278.260 255.225 C 278.309 255.037,278.309 254.729,278.260 254.541 C 278.211 254.353,278.170 254.507,278.170 254.883 M158.053 266.016 C 158.053 266.392,158.093 266.545,158.142 266.357 C 158.192 266.169,158.192 265.862,158.142 265.674 C 158.093 265.486,158.053 265.640,158.053 266.016 M122.506 266.992 C 122.506 267.368,122.546 267.522,122.596 267.334 C 122.645 267.146,122.645 266.838,122.596 266.650 C 122.546 266.462,122.506 266.616,122.506 266.992 M241.452 267.969 C 241.452 268.345,241.492 268.499,241.541 268.311 C 241.590 268.123,241.590 267.815,241.541 267.627 C 241.492 267.439,241.452 267.593,241.452 267.969 M276.998 267.969 C 276.998 268.345,277.039 268.499,277.088 268.311 C 277.137 268.123,277.137 267.815,277.088 267.627 C 277.039 267.439,276.998 267.593,276.998 267.969 M158.248 268.164 C 158.248 268.540,158.289 268.694,158.338 268.506 C 158.387 268.318,158.387 268.010,158.338 267.822 C 158.289 267.634,158.248 267.788,158.248 268.164 M122.702 269.141 C 122.702 269.517,122.742 269.670,122.791 269.482 C 122.840 269.294,122.840 268.987,122.791 268.799 C 122.742 268.611,122.702 268.765,122.702 269.141 M122.897 271.289 C 122.897 271.665,122.937 271.819,122.986 271.631 C 123.035 271.443,123.035 271.135,122.986 270.947 C 122.937 270.759,122.897 270.913,122.897 271.289 M158.639 272.656 C 158.639 273.032,158.679 273.186,158.728 272.998 C 158.778 272.810,158.778 272.502,158.728 272.314 C 158.679 272.126,158.639 272.280,158.639 272.656 M158.834 274.805 C 158.834 275.181,158.875 275.334,158.924 275.146 C 158.973 274.958,158.973 274.651,158.924 274.463 C 158.875 274.275,158.834 274.429,158.834 274.805 M159.225 279.297 C 159.225 279.673,159.265 279.827,159.314 279.639 C 159.363 279.451,159.363 279.143,159.314 278.955 C 159.265 278.767,159.225 278.921,159.225 279.297 M159.420 281.445 C 159.420 281.821,159.461 281.975,159.510 281.787 C 159.559 281.599,159.559 281.292,159.510 281.104 C 159.461 280.916,159.420 281.069,159.420 281.445 M123.873 282.227 C 123.873 282.603,123.914 282.756,123.963 282.568 C 124.012 282.380,124.012 282.073,123.963 281.885 C 123.914 281.697,123.873 281.851,123.873 282.227 M240.084 283.203 C 240.084 283.579,240.125 283.733,240.174 283.545 C 240.223 283.357,240.223 283.049,240.174 282.861 C 240.125 282.673,240.084 282.827,240.084 283.203 M275.631 283.203 C 275.631 283.579,275.671 283.733,275.721 283.545 C 275.770 283.357,275.770 283.049,275.721 282.861 C 275.671 282.673,275.631 282.827,275.631 283.203 M124.069 284.375 C 124.069 284.751,124.109 284.905,124.158 284.717 C 124.207 284.529,124.207 284.221,124.158 284.033 C 124.109 283.845,124.069 283.999,124.069 284.375 M159.811 285.938 C 159.811 286.313,159.851 286.467,159.900 286.279 C 159.949 286.091,159.949 285.784,159.900 285.596 C 159.851 285.408,159.811 285.562,159.811 285.938 M124.264 286.523 C 124.264 286.899,124.304 287.053,124.353 286.865 C 124.403 286.677,124.403 286.370,124.353 286.182 C 124.304 285.994,124.264 286.147,124.264 286.523 M160.006 288.086 C 160.006 288.462,160.046 288.616,160.096 288.428 C 160.145 288.240,160.145 287.932,160.096 287.744 C 160.046 287.556,160.006 287.710,160.006 288.086 M125.241 297.461 C 125.241 297.837,125.281 297.991,125.330 297.803 C 125.379 297.615,125.379 297.307,125.330 297.119 C 125.281 296.931,125.241 297.085,125.241 297.461 M274.264 298.438 C 274.264 298.813,274.304 298.967,274.353 298.779 C 274.403 298.591,274.403 298.284,274.353 298.096 C 274.304 297.908,274.264 298.062,274.264 298.438 M125.436 299.609 C 125.436 299.985,125.476 300.139,125.525 299.951 C 125.574 299.763,125.574 299.456,125.525 299.268 C 125.476 299.080,125.436 299.233,125.436 299.609 M125.631 301.758 C 125.631 302.134,125.671 302.288,125.721 302.100 C 125.770 301.912,125.770 301.604,125.721 301.416 C 125.671 301.228,125.631 301.382,125.631 301.758 M125.827 303.906 C 125.827 304.282,125.867 304.436,125.916 304.248 C 125.965 304.060,125.965 303.752,125.916 303.564 C 125.867 303.376,125.827 303.530,125.827 303.906 M273.092 311.523 C 273.092 311.899,273.132 312.053,273.182 311.865 C 273.231 311.677,273.231 311.370,273.182 311.182 C 273.132 310.994,273.092 311.147,273.092 311.523 M126.608 312.695 C 126.608 313.071,126.648 313.225,126.697 313.037 C 126.746 312.849,126.746 312.542,126.697 312.354 C 126.648 312.166,126.608 312.319,126.608 312.695 M126.803 314.844 C 126.803 315.220,126.843 315.374,126.892 315.186 C 126.942 314.998,126.942 314.690,126.892 314.502 C 126.843 314.314,126.803 314.468,126.803 314.844 M126.998 316.992 C 126.998 317.368,127.039 317.522,127.088 317.334 C 127.137 317.146,127.137 316.838,127.088 316.650 C 127.039 316.462,126.998 316.616,126.998 316.992 " stroke="none" fill="#f08f69" fill-rule="evenodd"></path></g></svg>