<svg id="svg" version="1.1" xmlns="http://www.w3.org/2000/svg" xmlns:xlink="http://www.w3.org/1999/xlink" width="400" height="400" viewBox="0, 0, 400, 570"><g id="svgg"><path id="path0" d="M0.534 111.611 C -0.057 111.726,-0.085 111.979,0.106 115.451 C 0.731 126.818,31.024 466.010,35.001 506.167 C 35.541 511.625,36.552 518.902,36.818 519.245 C 36.896 519.346,115.183 541.235,136.500 547.117 C 160.991 553.874,180.391 559.077,190.969 561.726 L 200.437 564.097 202.969 563.506 C 214.444 560.825,344.831 524.551,360.117 519.787 C 363.342 518.782,363.686 518.418,363.646 516.062 C 363.627 515.006,363.583 514.937,363.328 515.570 C 362.453 517.744,352.532 520.940,308.333 533.285 C 264.459 545.540,208.840 560.666,200.976 562.481 L 198.786 562.987 185.809 559.475 C 170.142 555.234,129.239 543.868,76.333 529.055 L 37.167 518.089 36.904 516.628 C 36.680 515.380,31.373 456.183,15.182 274.333 C 6.820 180.414,1.500 118.896,1.242 113.160 C 1.177 111.716,1.080 111.504,0.534 111.611 M399.000 113.271 C 399.000 117.440,376.208 376.411,366.314 484.664 C 364.848 500.704,363.696 514.054,363.753 514.330 C 363.875 514.922,363.987 513.833,367.002 482.500 C 372.176 428.739,382.523 316.476,391.163 220.333 C 400.086 121.058,400.810 111.667,399.544 111.667 C 399.116 111.667,399.000 112.009,399.000 113.271 M128.500 161.687 C 112.206 161.901,107.565 162.112,106.649 162.678 C 106.112 163.010,104.633 177.496,100.508 222.833 C 94.829 285.247,90.000 340.860,90.000 343.855 L 90.000 345.333 175.428 345.333 L 260.857 345.333 260.295 349.250 C 259.732 353.175,259.010 360.582,256.826 384.833 C 255.431 400.320,254.493 407.984,253.920 408.555 C 252.762 409.709,206.258 422.334,200.154 423.152 C 198.728 423.343,197.179 423.046,189.904 421.188 C 181.859 419.134,144.606 409.051,144.437 408.882 C 144.395 408.839,143.976 404.386,143.506 398.985 C 142.240 384.430,141.001 371.268,140.817 370.417 L 140.654 369.667 115.280 369.667 L 89.907 369.667 90.134 374.750 C 91.227 399.171,96.596 447.737,98.304 448.651 C 100.056 449.589,165.950 468.236,192.516 475.313 L 198.865 477.004 205.516 475.318 C 238.210 467.029,300.322 449.166,301.863 447.609 C 302.518 446.947,304.336 429.533,307.982 389.000 C 314.619 315.223,316.063 299.652,316.505 297.101 C 316.961 294.471,320.712 294.584,227.750 294.431 L 145.667 294.296 145.667 293.608 C 145.667 291.614,152.301 222.368,152.870 218.425 C 153.126 216.648,152.354 216.771,166.000 216.335 C 191.717 215.514,199.779 215.344,200.130 215.619 C 200.334 215.779,205.675 216.007,212.000 216.125 C 236.309 216.582,258.442 217.969,259.552 219.105 C 260.271 219.842,263.228 246.529,264.342 262.333 C 264.543 265.175,264.772 267.823,264.851 268.217 C 265.168 269.784,265.542 269.808,291.962 269.925 L 316.757 270.035 316.547 268.434 C 316.125 265.230,313.270 233.800,308.482 179.667 C 307.631 170.042,306.895 162.125,306.847 162.074 C 306.544 161.754,149.416 161.412,128.500 161.687 " stroke="none" fill="#fff" fill-rule="evenodd"></path><path id="path1" d="M1.333 112.140 C 1.333 116.882,7.204 183.842,29.013 427.833 C 33.438 477.333,37.088 517.864,37.125 517.901 C 37.322 518.102,156.710 551.421,180.333 557.868 C 200.460 563.360,198.309 563.004,203.528 561.705 C 230.205 555.059,334.867 526.013,352.167 520.453 C 361.748 517.374,363.127 516.598,363.450 514.101 C 364.834 503.412,399.000 116.777,399.000 111.809 L 399.000 110.333 200.167 110.333 L 1.333 110.333 1.333 112.140 M362.569 147.917 C 362.299 155.671,358.309 203.326,353.339 258.167 C 352.974 262.200,351.250 281.250,349.509 300.500 C 347.768 319.750,345.513 344.500,344.498 355.500 C 343.483 366.500,342.431 377.900,342.162 380.833 C 336.383 443.698,331.671 490.821,331.112 491.330 C 330.177 492.181,300.888 500.771,267.000 510.131 C 219.297 523.308,201.357 528.135,201.089 527.867 C 200.522 527.300,200.008 508.140,200.002 487.333 L 199.999 477.500 191.083 475.056 C 146.954 462.957,101.650 450.174,98.609 448.962 C 97.917 448.686,97.641 448.262,97.368 447.054 C 95.428 438.463,90.606 391.214,90.109 375.915 L 89.895 369.329 115.363 369.415 L 140.831 369.500 141.065 371.376 C 141.194 372.408,141.910 380.058,142.657 388.376 C 143.404 396.694,144.124 404.695,144.257 406.157 L 144.500 408.813 157.000 412.250 C 176.372 417.575,195.594 422.634,197.333 422.865 C 199.913 423.207,199.973 422.218,199.988 378.917 L 200.000 345.333 145.000 345.333 L 90.000 345.333 90.000 342.968 C 90.000 338.007,101.308 210.202,104.737 176.412 L 106.133 162.657 107.391 162.318 C 110.160 161.572,122.248 161.349,160.250 161.341 L 200.000 161.333 200.000 152.056 C 200.000 146.953,200.100 142.678,200.222 142.556 C 200.344 142.433,236.966 142.333,281.604 142.333 L 362.764 142.333 362.569 147.917 M184.333 215.853 C 164.742 216.413,153.559 216.968,153.297 217.392 C 152.887 218.056,151.120 235.296,148.179 267.333 C 146.992 280.258,145.930 291.621,145.820 292.583 L 145.619 294.333 172.809 294.333 L 200.000 294.333 200.000 254.833 C 200.000 223.430,199.915 215.343,199.583 215.381 C 199.354 215.407,192.492 215.620,184.333 215.853 " stroke="none" fill="#556b2f" fill-rule="evenodd"></path><path id="path2" d="M163.667 24.833 L 163.667 49.667 145.500 49.667 L 127.333 49.667 127.333 62.500 L 127.333 75.333 158.500 75.333 L 189.667 75.333 189.667 37.667 L 189.667 0.000 176.667 0.000 L 163.667 0.000 163.667 24.833 M201.333 8.659 L 201.333 17.318 211.417 28.245 C 222.151 39.876,228.774 47.178,232.495 51.483 L 234.784 54.132 233.809 54.419 C 233.272 54.577,225.746 54.794,217.083 54.902 L 201.333 55.097 201.333 65.215 L 201.333 75.333 237.167 75.333 L 273.000 75.333 272.986 66.417 L 272.971 57.500 256.073 39.333 L 239.174 21.167 243.504 20.942 C 245.885 20.819,253.196 20.614,259.750 20.487 L 271.667 20.256 271.667 10.128 L 271.667 0.000 236.500 0.000 L 201.333 0.000 201.333 8.659 " stroke="none" fill="#556b2f" fill-rule="evenodd"></path><path id="path3" d="M100.777 110.250 C 155.563 110.296,245.113 110.296,299.777 110.250 C 354.441 110.204,309.617 110.166,200.167 110.166 C 90.717 110.166,45.991 110.204,100.777 110.250 M1.411 116.667 C 1.411 117.308,1.479 117.571,1.563 117.250 C 1.647 116.929,1.647 116.404,1.563 116.083 C 1.479 115.763,1.411 116.025,1.411 116.667 M200.222 142.556 C 200.100 142.678,200.000 146.953,200.000 152.056 L 200.000 161.333 186.250 161.395 C 178.688 161.429,202.682 161.548,239.570 161.660 C 276.459 161.772,306.707 161.931,306.788 162.015 C 306.868 162.098,307.631 170.042,308.482 179.667 C 313.270 233.800,316.125 265.230,316.547 268.434 L 316.757 270.035 291.962 269.925 C 265.542 269.808,265.168 269.784,264.851 268.217 C 264.772 267.823,264.543 265.175,264.342 262.333 C 263.228 246.527,260.271 219.840,259.552 219.107 C 258.436 217.968,236.564 216.605,210.583 216.057 L 199.999 215.833 200.000 255.057 L 200.000 294.280 254.917 294.432 C 317.893 294.606,316.945 294.565,316.505 297.101 C 316.063 299.652,314.619 315.223,307.982 389.000 C 304.336 429.533,302.518 446.947,301.863 447.609 C 300.322 449.166,238.209 467.030,205.529 475.315 C 198.970 476.977,197.868 477.333,199.278 477.333 L 200.000 477.333 200.003 487.250 C 200.008 508.117,200.521 527.299,201.089 527.867 C 201.357 528.135,219.297 523.308,267.000 510.131 C 300.888 500.771,330.177 492.181,331.112 491.330 C 331.671 490.821,336.383 443.698,342.162 380.833 C 342.431 377.900,343.483 366.500,344.498 355.500 C 345.513 344.500,347.768 319.750,349.509 300.500 C 351.250 281.250,352.974 262.200,353.339 258.167 C 358.309 203.326,362.299 155.671,362.569 147.917 L 362.764 142.333 281.604 142.333 C 236.966 142.333,200.344 142.433,200.222 142.556 M125.106 161.583 C 128.922 161.637,135.072 161.636,138.772 161.583 C 142.473 161.529,139.350 161.485,131.833 161.486 C 124.317 161.486,121.289 161.530,125.106 161.583 M112.427 161.912 C 113.303 161.981,114.653 161.980,115.427 161.910 C 116.200 161.840,115.483 161.784,113.833 161.785 C 112.183 161.786,111.550 161.843,112.427 161.912 M195.917 215.574 C 196.512 215.648,197.487 215.648,198.083 215.574 C 198.679 215.501,198.192 215.440,197.000 215.440 C 195.808 215.440,195.321 215.501,195.917 215.574 M183.583 215.908 C 184.179 215.982,185.154 215.982,185.750 215.908 C 186.346 215.834,185.858 215.773,184.667 215.773 C 183.475 215.773,182.987 215.834,183.583 215.908 M171.750 216.239 C 172.254 216.315,173.079 216.315,173.583 216.239 C 174.088 216.162,173.675 216.100,172.667 216.100 C 171.658 216.100,171.246 216.162,171.750 216.239 M162.083 216.572 C 162.587 216.648,163.412 216.648,163.917 216.572 C 164.421 216.496,164.008 216.433,163.000 216.433 C 161.992 216.433,161.579 216.496,162.083 216.572 M154.923 216.908 C 155.522 216.982,156.422 216.981,156.923 216.905 C 157.424 216.829,156.933 216.768,155.833 216.770 C 154.733 216.772,154.324 216.834,154.923 216.908 M199.988 378.917 C 199.975 417.096,199.772 422.705,198.385 423.134 C 198.082 423.228,198.733 423.222,199.833 423.120 C 205.062 422.637,252.649 409.822,253.920 408.555 C 254.493 407.984,255.431 400.320,256.826 384.833 C 259.010 360.582,259.732 353.175,260.295 349.250 L 260.857 345.333 230.428 345.333 L 200.000 345.333 199.988 378.917 M115.148 369.582 C 134.869 369.651,140.528 369.762,140.757 370.085 C 140.973 370.391,141.015 370.368,140.914 370.000 C 140.795 369.561,137.663 369.500,115.306 369.497 L 89.833 369.494 115.148 369.582 M90.100 377.000 C 90.100 378.008,90.162 378.421,90.239 377.917 C 90.315 377.412,90.315 376.587,90.239 376.083 C 90.162 375.579,90.100 375.992,90.100 377.000 M90.417 382.833 C 90.421 383.567,90.489 383.827,90.569 383.413 C 90.649 382.998,90.646 382.398,90.562 382.079 C 90.479 381.761,90.414 382.100,90.417 382.833 M90.744 387.333 C 90.744 387.975,90.813 388.238,90.896 387.917 C 90.980 387.596,90.980 387.071,90.896 386.750 C 90.813 386.429,90.744 386.692,90.744 387.333 M91.411 395.333 C 91.411 395.975,91.479 396.238,91.563 395.917 C 91.647 395.596,91.647 395.071,91.563 394.750 C 91.479 394.429,91.411 394.692,91.411 395.333 M91.744 399.000 C 91.744 399.642,91.813 399.904,91.896 399.583 C 91.980 399.262,91.980 398.738,91.896 398.417 C 91.813 398.096,91.744 398.358,91.744 399.000 " stroke="none" fill="#000" fill-rule="evenodd"></path><path id="path4" d="" stroke="none" fill="#b85494" fill-rule="evenodd"></path></g></svg>